<svg xmlns="http://www.w3.org/2000/svg" viewBox="0 0 800 60" width="800" height="60" preserveAspectRatio="xMidYMid meet">
  <!-- Realistic EEG waveform divider with alpha bursts -->
  <path d="M 0.0,32.1 C 0.3,32.1 1.1,31.7 1.6,31.8 C 2.1,31.8 2.7,32.1 3.2,32.3 C 3.7,32.4 4.3,32.5 4.8,32.8 C 5.3,33.2 5.9,34.0 6.4,34.4 C 6.9,34.7 7.5,35.0 8.0,35.0 C 8.6,35.1 9.1,35.1 9.6,34.6 C 10.2,34.2 10.7,32.6 11.2,32.2 C 11.8,31.8 12.3,32.0 12.8,32.1 C 13.4,32.3 13.9,32.9 14.4,33.2 C 15.0,33.5 15.5,33.7 16.0,34.0 C 16.6,34.2 17.1,34.8 17.6,34.7 C 18.2,34.6 18.7,33.8 19.2,33.4 C 19.8,33.0 20.3,32.6 20.8,32.2 C 21.4,31.8 21.9,31.6 22.4,31.2 C 23.0,30.8 23.5,30.1 24.0,29.8 C 24.6,29.5 25.1,29.3 25.7,29.2 C 26.2,29.1 26.7,29.1 27.3,29.3 C 27.8,29.6 28.3,30.6 28.9,30.8 C 29.4,30.9 29.9,30.3 30.5,30.3 C 31.0,30.3 31.5,30.9 32.1,30.9 C 32.6,30.9 33.1,30.3 33.7,30.1 C 34.2,29.9 34.7,29.6 35.3,29.6 C 35.8,29.6 36.3,29.8 36.9,30.3 C 37.4,30.9 37.9,32.3 38.5,33.0 C 39.0,33.7 39.5,34.0 40.1,34.4 C 40.6,34.9 41.1,35.5 41.7,35.5 C 42.2,35.6 42.8,35.1 43.3,34.7 C 43.8,34.2 44.4,33.2 44.9,32.8 C 45.4,32.3 46.0,32.2 46.5,32.1 C 47.0,32.0 47.6,32.0 48.1,32.1 C 48.6,32.3 49.2,32.8 49.7,33.1 C 50.2,33.4 50.8,33.8 51.3,33.9 C 51.8,34.0 52.4,33.8 52.9,33.6 C 53.4,33.3 54.0,32.6 54.5,32.4 C 55.0,32.1 55.6,32.1 56.1,31.8 C 56.6,31.5 57.2,30.8 57.7,30.5 C 58.2,30.1 58.8,29.9 59.3,29.8 C 59.9,29.7 60.4,29.8 60.9,29.8 C 61.5,29.9 62.0,30.0 62.5,30.2 C 63.1,30.3 63.6,30.6 64.1,30.7 C 64.7,30.8 65.2,31.3 65.7,31.1 C 66.3,30.8 66.8,29.4 67.3,29.0 C 67.9,28.6 68.4,28.7 68.9,28.6 C 69.5,28.5 70.0,28.1 70.5,28.4 C 71.1,28.6 71.6,29.3 72.1,29.9 C 72.7,30.6 73.2,31.9 73.7,32.3 C 74.3,32.7 74.8,32.7 75.4,32.5 C 75.9,32.3 76.4,31.5 77.0,31.1 C 77.5,30.7 78.0,30.4 78.6,30.2 C 79.1,30.1 79.6,30.1 80.2,30.3 C 80.7,30.4 81.2,30.6 81.8,31.0 C 82.3,31.5 82.8,32.4 83.4,32.8 C 83.9,33.3 84.4,33.6 85.0,33.9 C 85.5,34.2 86.0,34.4 86.6,34.6 C 87.1,34.7 87.6,35.0 88.2,34.8 C 88.7,34.6 89.2,33.8 89.8,33.3 C 90.3,32.8 90.8,32.0 91.4,31.7 C 91.9,31.4 92.5,31.5 93.0,31.5 C 93.5,31.5 94.1,31.4 94.6,31.6 C 95.1,31.7 95.7,32.3 96.2,32.4 C 96.7,32.5 97.3,32.5 97.8,32.1 C 98.3,31.8 98.9,30.7 99.4,30.2 C 99.9,29.7 100.5,29.5 101.0,29.0 C 101.5,28.6 102.1,27.9 102.6,27.6 C 103.1,27.4 103.7,27.3 104.2,27.5 C 104.7,27.7 105.3,28.5 105.8,29.0 C 106.3,29.4 106.9,29.7 107.4,30.1 C 107.9,30.4 108.5,30.8 109.0,31.2 C 109.6,31.5 110.1,31.7 110.6,32.0 C 111.2,32.3 111.7,32.7 112.2,32.8 C 112.8,32.9 113.3,32.4 113.8,32.7 C 114.4,33.0 114.9,34.2 115.4,34.6 C 116.0,35.1 116.5,35.6 117.0,35.5 C 117.6,35.3 118.1,34.4 118.6,33.8 C 119.2,33.2 119.7,32.5 120.2,31.8 C 120.8,31.1 121.3,30.3 121.8,29.8 C 122.4,29.3 122.9,29.1 123.4,28.8 C 124.0,28.5 124.5,28.1 125.1,28.3 C 125.6,28.4 126.1,29.2 126.7,29.7 C 127.2,30.3 127.7,31.0 128.3,31.8 C 128.8,32.6 129.3,33.8 129.9,34.6 C 130.4,35.4 130.9,36.3 131.5,36.7 C 132.0,37.2 132.5,37.5 133.1,37.3 C 133.6,37.2 134.1,36.4 134.7,35.8 C 135.2,35.3 135.7,34.8 136.3,33.9 C 136.8,33.0 137.3,31.4 137.9,30.3 C 138.4,29.2 138.9,28.3 139.5,27.3 C 140.0,26.4 140.5,25.5 141.1,24.6 C 141.6,23.6 142.2,22.1 142.7,21.6 C 143.2,21.0 143.8,21.0 144.3,21.2 C 144.8,21.4 145.4,21.9 145.9,22.9 C 146.4,24.0 147.0,25.7 147.5,27.5 C 148.0,29.3 148.6,31.9 149.1,33.6 C 149.6,35.2 150.2,36.2 150.7,37.7 C 151.2,39.1 151.8,41.4 152.3,42.2 C 152.8,43.1 153.4,42.9 153.9,42.8 C 154.4,42.7 155.0,42.6 155.5,41.7 C 156.0,40.9 156.6,39.2 157.1,37.6 C 157.6,35.9 158.2,33.6 158.7,31.9 C 159.3,30.1 159.8,28.5 160.3,27.1 C 160.9,25.7 161.4,24.2 161.9,23.5 C 162.5,22.9 163.0,22.9 163.5,23.2 C 164.1,23.6 164.6,24.9 165.1,25.6 C 165.7,26.3 166.2,26.7 166.7,27.5 C 167.3,28.3 167.8,29.6 168.3,30.6 C 168.9,31.7 169.4,32.7 169.9,33.7 C 170.5,34.7 171.0,35.8 171.5,36.7 C 172.1,37.7 172.6,38.9 173.1,39.3 C 173.7,39.8 174.2,39.9 174.7,39.5 C 175.3,39.2 175.8,38.5 176.4,37.2 C 176.9,36.0 177.4,33.5 178.0,31.9 C 178.5,30.4 179.0,29.0 179.6,27.8 C 180.1,26.6 180.6,25.3 181.2,24.8 C 181.7,24.3 182.2,24.5 182.8,24.8 C 183.3,25.1 183.8,26.0 184.4,26.7 C 184.9,27.4 185.4,28.1 186.0,29.0 C 186.5,30.0 187.0,31.3 187.6,32.3 C 188.1,33.2 188.6,34.0 189.2,34.9 C 189.7,35.8 190.2,37.3 190.8,37.7 C 191.3,38.1 191.9,37.2 192.4,37.1 C 192.9,36.9 193.5,36.9 194.0,36.9 C 194.5,36.8 195.1,36.9 195.6,36.9 C 196.1,36.8 196.7,36.8 197.2,36.6 C 197.7,36.4 198.3,36.2 198.8,35.6 C 199.3,34.9 199.9,33.5 200.4,32.6 C 200.9,31.7 201.5,31.0 202.0,30.2 C 202.5,29.3 203.1,27.9 203.6,27.5 C 204.1,27.1 204.7,27.2 205.2,27.8 C 205.7,28.3 206.3,30.1 206.8,30.9 C 207.3,31.7 207.9,32.2 208.4,32.6 C 209.0,33.1 209.5,33.7 210.0,33.6 C 210.6,33.4 211.1,32.3 211.6,31.8 C 212.2,31.2 212.7,30.5 213.2,30.4 C 213.8,30.3 214.3,30.8 214.8,30.9 C 215.4,31.0 215.9,30.8 216.4,30.9 C 217.0,30.9 217.5,31.1 218.0,31.1 C 218.6,31.1 219.1,30.8 219.6,30.8 C 220.2,30.9 220.7,31.2 221.2,31.3 C 221.8,31.5 222.3,31.7 222.8,31.7 C 223.4,31.8 223.9,31.5 224.4,31.6 C 225.0,31.7 225.5,32.1 226.1,32.3 C 226.6,32.5 227.1,32.7 227.7,32.8 C 228.2,32.9 228.7,32.8 229.3,33.1 C 229.8,33.4 230.3,34.2 230.9,34.5 C 231.4,34.7 231.9,34.6 232.5,34.5 C 233.0,34.3 233.5,34.2 234.1,33.7 C 234.6,33.3 235.1,32.1 235.7,31.6 C 236.2,31.2 236.7,31.0 237.3,31.1 C 237.8,31.1 238.3,31.6 238.9,31.8 C 239.4,32.1 239.9,32.7 240.5,32.8 C 241.0,32.8 241.5,32.7 242.1,32.3 C 242.6,31.9 243.2,31.3 243.7,30.6 C 244.2,29.9 244.8,28.5 245.3,28.1 C 245.8,27.7 246.4,28.1 246.9,28.2 C 247.4,28.3 248.0,28.3 248.5,28.7 C 249.0,29.0 249.6,29.8 250.1,30.4 C 250.6,31.0 251.2,31.9 251.7,32.2 C 252.2,32.5 252.8,32.3 253.3,32.4 C 253.8,32.4 254.4,32.5 254.9,32.5 C 255.4,32.4 256.0,32.0 256.5,31.9 C 257.0,31.9 257.6,32.1 258.1,32.1 C 258.7,32.1 259.2,31.7 259.7,31.9 C 260.3,32.1 260.8,33.0 261.3,33.3 C 261.9,33.7 262.4,33.6 262.9,34.0 C 263.5,34.5 264.0,35.9 264.5,36.1 C 265.1,36.3 265.6,35.7 266.1,35.4 C 266.7,35.1 267.2,34.7 267.7,34.4 C 268.3,34.2 268.8,34.0 269.3,33.7 C 269.9,33.5 270.4,33.1 270.9,33.1 C 271.5,33.1 272.0,33.5 272.5,33.8 C 273.1,34.2 273.6,35.0 274.1,35.1 C 274.7,35.3 275.2,35.0 275.8,34.8 C 276.3,34.6 276.8,34.8 277.4,34.1 C 277.9,33.5 278.4,31.6 279.0,30.9 C 279.5,30.2 280.0,30.1 280.6,30.1 C 281.1,30.1 281.6,30.8 282.2,30.8 C 282.7,30.8 283.2,30.1 283.8,30.0 C 284.3,29.9 284.8,30.2 285.4,30.2 C 285.9,30.2 286.4,29.8 287.0,29.8 C 287.5,29.8 288.0,29.9 288.6,30.2 C 289.1,30.4 289.6,31.1 290.2,31.4 C 290.7,31.6 291.2,31.6 291.8,31.7 C 292.3,31.8 292.9,31.7 293.4,31.7 C 293.9,31.8 294.5,31.8 295.0,32.1 C 295.5,32.3 296.1,32.9 296.6,33.2 C 297.1,33.6 297.7,34.1 298.2,34.2 C 298.7,34.3 299.3,34.1 299.8,33.9 C 300.3,33.7 300.9,33.4 301.4,33.1 C 301.9,32.8 302.5,32.4 303.0,32.1 C 303.5,31.9 304.1,31.4 304.6,31.6 C 305.1,31.7 305.7,32.5 306.2,32.9 C 306.7,33.4 307.3,33.8 307.8,34.2 C 308.4,34.5 308.9,35.0 309.4,34.8 C 310.0,34.7 310.5,33.7 311.0,33.3 C 311.6,32.9 312.1,32.6 312.6,32.3 C 313.2,32.0 313.7,31.8 314.2,31.6 C 314.8,31.3 315.3,31.0 315.8,31.0 C 316.4,30.9 316.9,31.4 317.4,31.4 C 318.0,31.4 318.5,31.2 319.0,31.1 C 319.6,31.0 320.1,30.8 320.6,30.7 C 321.2,30.7 321.7,31.1 322.2,31.0 C 322.8,31.0 323.3,30.5 323.8,30.5 C 324.4,30.4 324.9,30.4 325.5,30.4 C 326.0,30.5 326.5,30.4 327.1,30.8 C 327.6,31.2 328.1,32.0 328.7,32.6 C 329.2,33.3 329.7,34.2 330.3,34.7 C 330.8,35.2 331.3,35.5 331.9,35.6 C 332.4,35.7 332.9,35.7 333.5,35.2 C 334.0,34.8 334.5,33.6 335.1,33.0 C 335.6,32.4 336.1,32.0 336.7,31.7 C 337.2,31.4 337.7,31.3 338.3,31.4 C 338.8,31.5 339.3,32.2 339.9,32.4 C 340.4,32.7 340.9,32.9 341.5,32.8 C 342.0,32.6 342.6,32.1 343.1,31.7 C 343.6,31.2 344.2,30.1 344.7,30.0 C 345.2,29.8 345.8,30.2 346.3,30.7 C 346.8,31.2 347.4,31.9 347.9,32.8 C 348.4,33.6 349.0,34.8 349.5,35.7 C 350.0,36.5 350.6,37.6 351.1,37.8 C 351.6,38.1 352.2,37.6 352.7,37.0 C 353.2,36.5 353.8,35.3 354.3,34.3 C 354.8,33.4 355.4,32.3 355.9,31.2 C 356.4,30.0 357.0,28.7 357.5,27.7 C 358.0,26.6 358.6,25.5 359.1,24.9 C 359.7,24.3 360.2,24.0 360.7,23.9 C 361.3,23.8 361.8,23.7 362.3,24.1 C 362.9,24.5 363.4,25.3 363.9,26.3 C 364.5,27.4 365.0,29.2 365.5,30.4 C 366.1,31.7 366.6,32.8 367.1,33.8 C 367.7,34.8 368.2,35.6 368.7,36.5 C 369.3,37.4 369.8,38.6 370.3,39.4 C 370.9,40.1 371.4,40.7 371.9,40.9 C 372.5,41.2 373.0,41.5 373.5,41.0 C 374.1,40.5 374.6,39.2 375.2,38.0 C 375.7,36.7 376.2,35.0 376.8,33.3 C 377.3,31.6 377.8,29.5 378.4,27.9 C 378.9,26.4 379.4,24.7 380.0,23.9 C 380.5,23.1 381.0,23.2 381.6,23.3 C 382.1,23.3 382.6,23.6 383.2,24.3 C 383.7,25.0 384.2,26.2 384.8,27.4 C 385.3,28.6 385.8,30.1 386.4,31.5 C 386.9,33.0 387.4,34.6 388.0,36.0 C 388.5,37.3 389.0,38.9 389.6,39.7 C 390.1,40.5 390.6,40.8 391.2,40.9 C 391.7,41.1 392.3,41.3 392.8,40.6 C 393.3,39.8 393.9,37.9 394.4,36.3 C 394.9,34.7 395.5,32.8 396.0,31.0 C 396.5,29.1 397.1,26.9 397.6,25.3 C 398.1,23.8 398.7,23.0 399.2,21.8 C 399.7,20.5 400.3,18.6 400.8,18.0 C 401.3,17.3 401.9,17.4 402.4,18.0 C 402.9,18.6 403.5,19.9 404.0,21.5 C 404.5,23.2 405.1,25.5 405.6,27.9 C 406.1,30.2 406.7,33.4 407.2,35.7 C 407.7,38.0 408.3,40.4 408.8,41.9 C 409.4,43.4 409.9,44.4 410.4,44.7 C 411.0,44.9 411.5,43.8 412.0,43.2 C 412.6,42.6 413.1,41.9 413.6,41.0 C 414.2,40.2 414.7,39.3 415.2,38.1 C 415.8,36.9 416.3,35.5 416.8,34.0 C 417.4,32.5 417.9,30.5 418.4,29.0 C 419.0,27.5 419.5,25.9 420.0,25.0 C 420.6,24.0 421.1,23.6 421.6,23.3 C 422.2,23.1 422.7,23.3 423.2,23.6 C 423.8,23.9 424.3,24.0 424.8,25.0 C 425.4,26.1 425.9,28.3 426.5,29.7 C 427.0,31.2 427.5,32.4 428.1,33.8 C 428.6,35.1 429.1,36.9 429.7,37.8 C 430.2,38.8 430.7,39.4 431.3,39.6 C 431.8,39.7 432.3,39.5 432.9,38.7 C 433.4,37.9 433.9,36.4 434.5,34.9 C 435.0,33.4 435.5,31.4 436.1,30.0 C 436.6,28.6 437.1,27.2 437.7,26.4 C 438.2,25.6 438.7,25.1 439.3,25.1 C 439.8,25.0 440.3,25.5 440.9,25.8 C 441.4,26.1 442.0,26.5 442.5,26.9 C 443.0,27.4 443.6,28.3 444.1,28.7 C 444.6,29.2 445.2,28.9 445.7,29.6 C 446.2,30.4 446.8,31.7 447.3,33.0 C 447.8,34.3 448.4,36.1 448.9,37.3 C 449.4,38.5 450.0,39.6 450.5,40.2 C 451.0,40.7 451.6,40.8 452.1,40.6 C 452.6,40.3 453.2,39.4 453.7,38.7 C 454.2,37.9 454.8,37.2 455.3,36.1 C 455.8,35.0 456.4,33.3 456.9,32.2 C 457.4,31.1 458.0,30.1 458.5,29.3 C 459.1,28.6 459.6,28.1 460.1,27.7 C 460.7,27.3 461.2,27.1 461.7,27.1 C 462.3,27.2 462.8,27.7 463.3,28.3 C 463.9,28.9 464.4,30.2 464.9,30.7 C 465.5,31.2 466.0,31.2 466.5,31.3 C 467.1,31.3 467.6,30.8 468.1,30.8 C 468.7,30.8 469.2,31.1 469.7,31.0 C 470.3,30.9 470.8,30.1 471.3,30.3 C 471.9,30.5 472.4,31.7 472.9,32.1 C 473.5,32.5 474.0,32.8 474.5,32.9 C 475.1,33.0 475.6,33.0 476.2,32.7 C 476.7,32.4 477.2,31.8 477.8,31.3 C 478.3,30.8 478.8,30.1 479.4,29.8 C 479.9,29.6 480.4,29.6 481.0,29.9 C 481.5,30.1 482.0,30.7 482.6,31.4 C 483.1,32.1 483.6,33.5 484.2,34.0 C 484.7,34.5 485.2,34.3 485.8,34.6 C 486.3,34.9 486.8,35.6 487.4,35.8 C 487.9,36.0 488.4,36.0 489.0,35.8 C 489.5,35.6 490.0,34.9 490.6,34.6 C 491.1,34.3 491.6,34.3 492.2,33.8 C 492.7,33.3 493.3,32.1 493.8,31.6 C 494.3,31.1 494.9,30.9 495.4,30.8 C 495.9,30.7 496.5,30.9 497.0,31.1 C 497.5,31.2 498.1,31.5 498.6,31.6 C 499.1,31.6 499.7,31.5 500.2,31.2 C 500.7,30.8 501.3,29.8 501.8,29.4 C 502.3,29.1 502.9,29.3 503.4,29.1 C 503.9,29.0 504.5,28.4 505.0,28.7 C 505.5,29.0 506.1,30.3 506.6,30.9 C 507.1,31.6 507.7,32.2 508.2,32.4 C 508.8,32.6 509.3,32.2 509.8,32.0 C 510.4,31.8 510.9,31.3 511.4,31.0 C 512.0,30.8 512.5,30.7 513.0,30.7 C 513.6,30.8 514.1,30.9 514.6,31.2 C 515.2,31.4 515.7,31.9 516.2,32.4 C 516.8,33.0 517.3,33.8 517.8,34.2 C 518.4,34.6 518.9,34.6 519.4,34.9 C 520.0,35.2 520.5,35.9 521.0,36.0 C 521.6,36.1 522.1,35.5 522.6,35.4 C 523.2,35.3 523.7,35.7 524.2,35.5 C 524.8,35.3 525.3,34.5 525.9,34.3 C 526.4,34.1 526.9,34.5 527.5,34.3 C 528.0,34.1 528.5,33.4 529.1,33.2 C 529.6,33.1 530.1,33.5 530.7,33.4 C 531.2,33.3 531.7,32.9 532.3,32.6 C 532.8,32.3 533.3,32.1 533.9,31.7 C 534.4,31.3 534.9,30.8 535.5,30.5 C 536.0,30.1 536.5,29.5 537.1,29.5 C 537.6,29.4 538.1,29.5 538.7,30.1 C 539.2,30.6 539.7,32.2 540.3,32.7 C 540.8,33.2 541.3,33.0 541.9,33.0 C 542.4,33.0 543.0,33.2 543.5,32.8 C 544.0,32.4 544.6,31.0 545.1,30.4 C 545.6,29.9 546.2,29.6 546.7,29.5 C 547.2,29.3 547.8,29.2 548.3,29.5 C 548.8,29.8 549.4,30.8 549.9,31.4 C 550.4,32.0 551.0,32.7 551.5,33.1 C 552.0,33.4 552.6,33.5 553.1,33.5 C 553.6,33.6 554.2,33.3 554.7,33.4 C 555.2,33.4 555.8,33.6 556.3,33.6 C 556.8,33.6 557.4,33.7 557.9,33.4 C 558.5,33.0 559.0,32.0 559.5,31.8 C 560.1,31.5 560.6,31.7 561.1,32.0 C 561.7,32.2 562.2,32.9 562.7,33.4 C 563.3,33.8 563.8,34.1 564.3,34.5 C 564.9,34.8 565.4,35.3 565.9,35.3 C 566.5,35.3 567.0,35.1 567.5,34.4 C 568.1,33.7 568.6,31.9 569.1,31.1 C 569.7,30.3 570.2,30.1 570.7,29.8 C 571.3,29.5 571.8,29.3 572.3,29.4 C 572.9,29.6 573.4,30.4 573.9,30.6 C 574.5,30.8 575.0,30.9 575.6,30.6 C 576.1,30.3 576.6,29.3 577.2,28.9 C 577.7,28.4 578.2,27.9 578.8,27.7 C 579.3,27.4 579.8,27.2 580.4,27.3 C 580.9,27.5 581.4,27.8 582.0,28.4 C 582.5,28.9 583.0,29.7 583.6,30.6 C 584.1,31.4 584.6,32.7 585.2,33.4 C 585.7,34.2 586.2,34.6 586.8,35.0 C 587.3,35.3 587.8,35.3 588.4,35.4 C 588.9,35.5 589.4,35.7 590.0,35.6 C 590.5,35.4 591.0,35.1 591.6,34.4 C 592.1,33.7 592.7,32.1 593.2,31.5 C 593.7,30.9 594.3,31.1 594.8,30.9 C 595.3,30.6 595.9,29.9 596.4,29.8 C 596.9,29.7 597.5,30.2 598.0,30.5 C 598.5,30.8 599.1,31.5 599.6,31.6 C 600.1,31.8 600.7,31.6 601.2,31.4 C 601.7,31.2 602.3,30.4 602.8,30.4 C 603.3,30.4 603.9,30.7 604.4,31.3 C 604.9,31.9 605.5,33.0 606.0,33.9 C 606.5,34.9 607.1,36.2 607.6,36.9 C 608.1,37.6 608.7,38.3 609.2,38.1 C 609.8,37.9 610.3,36.8 610.8,35.8 C 611.4,34.8 611.9,33.3 612.4,32.2 C 613.0,31.2 613.5,30.2 614.0,29.4 C 614.6,28.7 615.1,28.3 615.6,27.8 C 616.2,27.2 616.7,26.6 617.2,26.3 C 617.8,26.0 618.3,26.0 618.8,26.1 C 619.4,26.3 619.9,26.8 620.4,27.3 C 621.0,27.7 621.5,27.9 622.0,28.6 C 622.6,29.3 623.1,30.4 623.6,31.6 C 624.2,32.8 624.7,34.5 625.3,35.6 C 625.8,36.7 626.3,37.3 626.9,38.2 C 627.4,39.0 627.9,40.3 628.5,40.7 C 629.0,41.0 629.5,40.4 630.1,40.2 C 630.6,39.9 631.1,40.0 631.7,39.3 C 632.2,38.6 632.7,37.2 633.3,35.8 C 633.8,34.4 634.3,32.6 634.9,31.0 C 635.4,29.4 635.9,27.7 636.5,26.5 C 637.0,25.2 637.5,24.0 638.1,23.7 C 638.6,23.5 639.1,24.4 639.7,25.0 C 640.2,25.6 640.7,26.5 641.3,27.4 C 641.8,28.2 642.4,29.3 642.9,30.2 C 643.4,31.0 644.0,32.0 644.5,32.7 C 645.0,33.3 645.6,33.8 646.1,34.3 C 646.6,34.7 647.2,35.0 647.7,35.4 C 648.2,35.8 648.8,36.5 649.3,36.6 C 649.8,36.8 650.4,36.9 650.9,36.5 C 651.4,36.0 652.0,34.7 652.5,33.8 C 653.0,32.9 653.6,32.1 654.1,31.1 C 654.6,30.0 655.2,28.5 655.7,27.5 C 656.2,26.6 656.8,25.9 657.3,25.4 C 657.8,24.9 658.4,24.6 658.9,24.5 C 659.5,24.4 660.0,24.3 660.5,24.9 C 661.1,25.4 661.6,26.6 662.1,27.8 C 662.7,29.0 663.2,30.7 663.7,32.1 C 664.3,33.5 664.8,35.2 665.3,36.3 C 665.9,37.5 666.4,38.2 666.9,38.9 C 667.5,39.6 668.0,40.6 668.5,40.5 C 669.1,40.3 669.6,38.8 670.1,38.0 C 670.7,37.2 671.2,36.2 671.7,35.6 C 672.3,35.0 672.8,34.9 673.3,34.4 C 673.9,33.9 674.4,33.2 674.9,32.6 C 675.5,31.9 676.0,31.3 676.6,30.6 C 677.1,29.9 677.6,29.0 678.2,28.3 C 678.7,27.6 679.2,26.3 679.8,26.3 C 680.3,26.3 680.8,27.6 681.4,28.2 C 681.9,28.8 682.4,29.2 683.0,29.8 C 683.5,30.4 684.0,31.3 684.6,31.8 C 685.1,32.3 685.6,32.9 686.2,33.0 C 686.7,33.0 687.2,32.3 687.8,32.2 C 688.3,32.1 688.8,32.4 689.4,32.5 C 689.9,32.6 690.4,32.6 691.0,32.6 C 691.5,32.5 692.1,32.4 692.6,32.2 C 693.1,31.9 693.7,31.6 694.2,31.3 C 694.7,31.1 695.3,30.8 695.8,30.7 C 696.3,30.7 696.9,30.7 697.4,30.9 C 697.9,31.1 698.5,31.9 699.0,32.1 C 699.5,32.3 700.1,32.4 700.6,32.2 C 701.1,31.9 701.7,30.8 702.2,30.7 C 702.7,30.5 703.3,30.8 703.8,31.2 C 704.3,31.5 704.9,32.2 705.4,32.6 C 705.9,33.1 706.5,33.2 707.0,33.7 C 707.5,34.2 708.1,35.3 708.6,35.7 C 709.2,36.0 709.7,36.0 710.2,35.7 C 710.8,35.5 711.3,34.8 711.8,34.2 C 712.4,33.6 712.9,32.7 713.4,32.2 C 714.0,31.6 714.5,31.2 715.0,31.0 C 715.6,30.8 716.1,31.0 716.6,31.1 C 717.2,31.1 717.7,31.2 718.2,31.4 C 718.8,31.7 719.3,32.5 719.8,32.4 C 720.4,32.3 720.9,31.1 721.4,30.7 C 722.0,30.4 722.5,30.1 723.0,30.2 C 723.6,30.2 724.1,30.8 724.6,30.8 C 725.2,30.9 725.7,30.5 726.3,30.5 C 726.8,30.5 727.3,30.7 727.9,30.7 C 728.4,30.7 728.9,30.3 729.5,30.5 C 730.0,30.7 730.5,31.5 731.1,31.9 C 731.6,32.4 732.1,32.9 732.7,33.0 C 733.2,33.1 733.7,32.6 734.3,32.5 C 734.8,32.4 735.3,32.6 735.9,32.4 C 736.4,32.2 736.9,31.3 737.5,31.3 C 738.0,31.3 738.5,32.0 739.1,32.5 C 739.6,33.0 740.1,33.9 740.7,34.4 C 741.2,34.9 741.8,35.3 742.3,35.4 C 742.8,35.6 743.4,35.4 743.9,35.2 C 744.4,34.9 745.0,34.3 745.5,33.8 C 746.0,33.4 746.6,32.8 747.1,32.5 C 747.6,32.2 748.2,32.1 748.7,32.1 C 749.2,32.2 749.8,32.7 750.3,32.8 C 750.8,32.9 751.4,32.8 751.9,32.9 C 752.4,33.0 753.0,33.4 753.5,33.3 C 754.0,33.3 754.6,33.1 755.1,32.6 C 755.6,32.2 756.2,30.9 756.7,30.7 C 757.2,30.5 757.8,31.3 758.3,31.3 C 758.9,31.3 759.4,31.0 759.9,30.8 C 760.5,30.6 761.0,30.4 761.5,30.2 C 762.1,30.1 762.6,29.7 763.1,29.8 C 763.7,29.9 764.2,30.5 764.7,30.8 C 765.3,31.1 765.8,31.3 766.3,31.4 C 766.9,31.6 767.4,31.6 767.9,31.7 C 768.5,31.7 769.0,32.0 769.5,32.0 C 770.1,31.9 770.6,30.9 771.1,31.2 C 771.7,31.4 772.2,32.6 772.7,33.2 C 773.3,33.7 773.8,34.1 774.3,34.3 C 774.9,34.5 775.4,34.8 776.0,34.6 C 776.5,34.4 777.0,33.8 777.6,33.2 C 778.1,32.6 778.6,31.4 779.2,30.9 C 779.7,30.4 780.2,30.2 780.8,30.3 C 781.3,30.4 781.8,30.8 782.4,31.3 C 782.9,31.7 783.4,32.7 784.0,32.9 C 784.5,33.2 785.0,32.8 785.6,32.7 C 786.1,32.5 786.6,32.2 787.2,32.1 C 787.7,32.0 788.2,32.2 788.8,32.1 C 789.3,32.0 789.8,31.6 790.4,31.5 C 790.9,31.3 791.4,31.3 792.0,31.1 C 792.5,30.9 793.1,30.5 793.6,30.3 C 794.1,30.2 794.7,30.0 795.2,29.9 C 795.7,29.9 796.3,29.9 796.8,30.2 C 797.3,30.5 797.9,31.4 798.4,31.7 C 798.9,32.0 799.7,31.9 800.0,31.9"
    fill="none" stroke="#2C5F8A" stroke-width="1.2" stroke-linecap="round" stroke-linejoin="round" opacity="0.2"/>
  <path d="M 0.0,30.1 C 0.3,30.0 1.1,29.8 1.6,29.8 C 2.1,29.8 2.7,29.9 3.2,29.9 C 3.7,30.0 4.3,30.0 4.8,30.3 C 5.3,30.6 5.9,30.8 6.4,31.6 C 6.9,32.3 7.5,34.5 8.0,34.8 C 8.6,35.2 9.1,34.3 9.6,33.8 C 10.2,33.3 10.7,32.5 11.2,32.1 C 11.8,31.7 12.3,31.3 12.8,31.1 C 13.4,31.0 13.9,31.0 14.4,31.1 C 15.0,31.2 15.5,31.3 16.0,31.8 C 16.6,32.4 17.1,34.1 17.6,34.5 C 18.2,34.8 18.7,34.6 19.2,33.9 C 19.8,33.2 20.3,31.1 20.8,30.4 C 21.4,29.6 21.9,30.3 22.4,29.7 C 23.0,29.0 23.5,26.9 24.0,26.3 C 24.6,25.8 25.1,26.4 25.7,26.2 C 26.2,26.1 26.7,25.3 27.3,25.4 C 27.8,25.5 28.3,26.4 28.9,26.8 C 29.4,27.2 29.9,27.5 30.5,27.8 C 31.0,28.0 31.5,28.3 32.1,28.1 C 32.6,27.9 33.1,26.8 33.7,26.5 C 34.2,26.2 34.7,26.2 35.3,26.3 C 35.8,26.4 36.3,26.6 36.9,27.1 C 37.4,27.5 37.9,28.1 38.5,29.0 C 39.0,29.9 39.5,31.3 40.1,32.3 C 40.6,33.3 41.1,34.7 41.7,35.1 C 42.2,35.4 42.8,34.8 43.3,34.4 C 43.8,34.0 44.4,33.4 44.9,32.5 C 45.4,31.7 46.0,29.9 46.5,29.5 C 47.0,29.1 47.6,30.0 48.1,30.3 C 48.6,30.7 49.2,31.3 49.7,31.6 C 50.2,31.9 50.8,32.0 51.3,32.3 C 51.8,32.6 52.4,33.4 52.9,33.5 C 53.4,33.5 54.0,32.9 54.5,32.4 C 55.0,31.9 55.6,30.9 56.1,30.4 C 56.6,29.8 57.2,29.7 57.7,28.9 C 58.2,28.2 58.8,26.5 59.3,25.9 C 59.9,25.4 60.4,25.6 60.9,25.7 C 61.5,25.8 62.0,26.3 62.5,26.5 C 63.1,26.7 63.6,26.3 64.1,26.7 C 64.7,27.1 65.2,28.9 65.7,29.1 C 66.3,29.3 66.8,28.6 67.3,27.8 C 67.9,27.0 68.4,25.0 68.9,24.4 C 69.5,23.8 70.0,24.1 70.5,24.2 C 71.1,24.3 71.6,24.0 72.1,24.9 C 72.7,25.9 73.2,29.1 73.7,30.0 C 74.3,30.8 74.8,30.0 75.4,30.0 C 75.9,30.0 76.4,30.2 77.0,29.9 C 77.5,29.6 78.0,28.7 78.6,28.2 C 79.1,27.7 79.6,26.8 80.2,26.8 C 80.7,26.8 81.2,27.7 81.8,28.1 C 82.3,28.6 82.8,28.8 83.4,29.6 C 83.9,30.4 84.4,32.3 85.0,33.0 C 85.5,33.6 86.0,33.3 86.6,33.6 C 87.1,33.9 87.6,34.9 88.2,35.0 C 88.7,35.1 89.2,35.1 89.8,34.4 C 90.3,33.7 90.8,31.7 91.4,30.8 C 91.9,30.0 92.5,29.4 93.0,29.0 C 93.5,28.7 94.1,28.8 94.6,29.0 C 95.1,29.2 95.7,30.0 96.2,30.2 C 96.7,30.4 97.3,30.2 97.8,30.1 C 98.3,30.1 98.9,30.5 99.4,29.8 C 99.9,29.2 100.5,27.2 101.0,26.3 C 101.5,25.4 102.1,25.0 102.6,24.4 C 103.1,23.8 103.7,22.9 104.2,22.6 C 104.7,22.3 105.3,22.0 105.8,22.5 C 106.3,23.0 106.9,24.8 107.4,25.6 C 107.9,26.5 108.5,27.1 109.0,27.6 C 109.6,28.1 110.1,28.2 110.6,28.7 C 111.2,29.1 111.7,30.0 112.2,30.3 C 112.8,30.6 113.3,29.9 113.8,30.4 C 114.4,30.9 114.9,32.4 115.4,33.3 C 116.0,34.1 116.5,35.6 117.0,35.7 C 117.6,35.9 118.1,34.8 118.6,34.1 C 119.2,33.4 119.7,32.6 120.2,31.7 C 120.8,30.7 121.3,29.7 121.8,28.3 C 122.4,26.9 122.9,24.1 123.4,23.4 C 124.0,22.7 124.5,23.8 125.1,24.1 C 125.6,24.3 126.1,24.1 126.7,24.8 C 127.2,25.4 127.7,26.7 128.3,27.9 C 128.8,29.1 129.3,30.6 129.9,32.0 C 130.4,33.4 130.9,35.2 131.5,36.3 C 132.0,37.3 132.5,37.8 133.1,38.2 C 133.6,38.6 134.1,39.4 134.7,38.7 C 135.2,38.0 135.7,35.5 136.3,34.1 C 136.8,32.6 137.3,31.6 137.9,30.1 C 138.4,28.7 138.9,27.0 139.5,25.4 C 140.0,23.7 140.5,22.0 141.1,20.2 C 141.6,18.5 142.2,16.1 142.7,14.7 C 143.2,13.4 143.8,12.1 144.3,11.9 C 144.8,11.8 145.4,12.8 145.9,13.8 C 146.4,14.9 147.0,15.8 147.5,18.1 C 148.0,20.3 148.6,24.0 149.1,27.1 C 149.6,30.3 150.2,34.2 150.7,37.0 C 151.2,39.9 151.8,42.3 152.3,44.2 C 152.8,46.2 153.4,48.1 153.9,48.7 C 154.4,49.3 155.0,48.9 155.5,47.9 C 156.0,46.9 156.6,45.1 157.1,42.8 C 157.6,40.6 158.2,37.2 158.7,34.3 C 159.3,31.5 159.8,28.7 160.3,26.0 C 160.9,23.3 161.4,20.0 161.9,18.2 C 162.5,16.5 163.0,15.6 163.5,15.4 C 164.1,15.1 164.6,15.6 165.1,16.6 C 165.7,17.6 166.2,20.2 166.7,21.5 C 167.3,22.8 167.8,23.4 168.3,24.7 C 168.9,25.9 169.4,27.3 169.9,29.2 C 170.5,31.1 171.0,33.8 171.5,35.8 C 172.1,37.8 172.6,39.8 173.1,41.1 C 173.7,42.3 174.2,43.3 174.7,43.4 C 175.3,43.5 175.8,43.2 176.4,41.7 C 176.9,40.2 177.4,36.8 178.0,34.3 C 178.5,31.8 179.0,28.8 179.6,26.5 C 180.1,24.3 180.6,22.2 181.2,20.9 C 181.7,19.6 182.2,19.0 182.8,18.6 C 183.3,18.2 183.8,18.1 184.4,18.7 C 184.9,19.4 185.4,21.0 186.0,22.5 C 186.5,24.0 187.0,26.0 187.6,27.7 C 188.1,29.5 188.6,31.5 189.2,33.0 C 189.7,34.4 190.2,35.6 190.8,36.5 C 191.3,37.4 191.9,38.0 192.4,38.4 C 192.9,38.8 193.5,38.9 194.0,38.8 C 194.5,38.7 195.1,38.3 195.6,38.0 C 196.1,37.8 196.7,37.6 197.2,37.4 C 197.7,37.2 198.3,37.2 198.8,36.8 C 199.3,36.3 199.9,36.1 200.4,34.7 C 200.9,33.4 201.5,30.3 202.0,28.7 C 202.5,27.0 203.1,26.0 203.6,24.9 C 204.1,23.9 204.7,22.2 205.2,22.3 C 205.7,22.5 206.3,24.7 206.8,26.0 C 207.3,27.2 207.9,28.8 208.4,29.7 C 209.0,30.7 209.5,31.4 210.0,31.7 C 210.6,32.0 211.1,32.1 211.6,31.3 C 212.2,30.6 212.7,27.8 213.2,27.1 C 213.8,26.5 214.3,27.2 214.8,27.3 C 215.4,27.5 215.9,27.8 216.4,28.1 C 217.0,28.4 217.5,29.1 218.0,29.3 C 218.6,29.5 219.1,29.5 219.6,29.1 C 220.2,28.8 220.7,27.5 221.2,27.5 C 221.8,27.4 222.3,28.2 222.8,28.6 C 223.4,29.0 223.9,29.5 224.4,29.8 C 225.0,30.0 225.5,29.7 226.1,30.1 C 226.6,30.4 227.1,31.7 227.7,31.8 C 228.2,31.9 228.7,30.4 229.3,30.8 C 229.8,31.3 230.3,33.6 230.9,34.2 C 231.4,34.9 231.9,34.6 232.5,34.6 C 233.0,34.5 233.5,34.6 234.1,33.9 C 234.6,33.2 235.1,31.2 235.7,30.5 C 236.2,29.7 236.7,29.2 237.3,29.3 C 237.8,29.3 238.3,30.4 238.9,30.6 C 239.4,30.8 239.9,30.6 240.5,30.7 C 241.0,30.7 241.5,31.2 242.1,30.9 C 242.6,30.7 243.2,30.1 243.7,29.1 C 244.2,28.2 244.8,25.9 245.3,25.0 C 245.8,24.1 246.4,23.7 246.9,23.7 C 247.4,23.6 248.0,24.4 248.5,24.8 C 249.0,25.2 249.6,25.1 250.1,25.9 C 250.6,26.7 251.2,28.9 251.7,29.6 C 252.2,30.4 252.8,30.4 253.3,30.4 C 253.8,30.4 254.4,29.8 254.9,29.7 C 255.4,29.6 256.0,29.9 256.5,30.0 C 257.0,30.0 257.6,30.1 258.1,30.1 C 258.7,30.2 259.2,30.0 259.7,30.2 C 260.3,30.4 260.8,30.9 261.3,31.4 C 261.9,31.8 262.4,32.2 262.9,32.8 C 263.5,33.4 264.0,34.0 264.5,34.8 C 265.1,35.6 265.6,37.5 266.1,37.5 C 266.7,37.5 267.2,35.5 267.7,34.8 C 268.3,34.0 268.8,33.6 269.3,33.1 C 269.9,32.6 270.4,32.0 270.9,31.8 C 271.5,31.6 272.0,31.5 272.5,31.8 C 273.1,32.1 273.6,33.2 274.1,33.7 C 274.7,34.2 275.2,34.9 275.8,34.9 C 276.3,34.8 276.8,34.2 277.4,33.5 C 277.9,32.9 278.4,32.1 279.0,30.9 C 279.5,29.7 280.0,27.1 280.6,26.5 C 281.1,25.8 281.6,27.2 282.2,27.1 C 282.7,27.1 283.2,26.4 283.8,26.1 C 284.3,25.8 284.8,25.5 285.4,25.5 C 285.9,25.6 286.4,26.5 287.0,26.5 C 287.5,26.6 288.0,25.4 288.6,25.7 C 289.1,25.9 289.6,27.4 290.2,28.1 C 290.7,28.8 291.2,29.5 291.8,29.8 C 292.3,30.2 292.9,30.1 293.4,30.1 C 293.9,30.0 294.5,29.5 295.0,29.7 C 295.5,29.9 296.1,30.7 296.6,31.2 C 297.1,31.6 297.7,31.9 298.2,32.3 C 298.7,32.8 299.3,33.9 299.8,33.9 C 300.3,33.8 300.9,32.4 301.4,31.9 C 301.9,31.3 302.5,31.2 303.0,30.7 C 303.5,30.1 304.1,28.6 304.6,28.7 C 305.1,28.7 305.7,30.1 306.2,30.8 C 306.7,31.5 307.3,32.2 307.8,32.8 C 308.4,33.3 308.9,33.9 309.4,34.1 C 310.0,34.3 310.5,34.3 311.0,33.8 C 311.6,33.4 312.1,32.3 312.6,31.6 C 313.2,30.9 313.7,30.1 314.2,29.6 C 314.8,29.1 315.3,28.7 315.8,28.7 C 316.4,28.7 316.9,29.7 317.4,29.7 C 318.0,29.7 318.5,29.0 319.0,28.7 C 319.6,28.3 320.1,27.4 320.6,27.5 C 321.2,27.6 321.7,28.8 322.2,29.0 C 322.8,29.1 323.3,28.7 323.8,28.2 C 324.4,27.7 324.9,25.9 325.5,25.9 C 326.0,25.9 326.5,27.6 327.1,28.0 C 327.6,28.5 328.1,28.0 328.7,28.7 C 329.2,29.5 329.7,31.4 330.3,32.7 C 330.8,34.0 331.3,35.9 331.9,36.5 C 332.4,37.2 332.9,37.0 333.5,36.5 C 334.0,35.9 334.5,34.1 335.1,33.3 C 335.6,32.4 336.1,32.2 336.7,31.5 C 337.2,30.9 337.7,29.5 338.3,29.3 C 338.8,29.2 339.3,30.3 339.9,30.6 C 340.4,30.9 340.9,31.1 341.5,31.2 C 342.0,31.2 342.6,31.3 343.1,30.9 C 343.6,30.5 344.2,29.8 344.7,29.0 C 345.2,28.2 345.8,26.2 346.3,26.1 C 346.8,26.1 347.4,27.6 347.9,28.8 C 348.4,30.1 349.0,32.1 349.5,33.7 C 350.0,35.3 350.6,37.3 351.1,38.3 C 351.6,39.4 352.2,40.5 352.7,40.1 C 353.2,39.7 353.8,37.5 354.3,36.1 C 354.8,34.6 355.4,33.2 355.9,31.4 C 356.4,29.6 357.0,27.1 357.5,25.3 C 358.0,23.5 358.6,21.8 359.1,20.3 C 359.7,18.9 360.2,17.2 360.7,16.4 C 361.3,15.5 361.8,14.7 362.3,15.1 C 362.9,15.6 363.4,17.7 363.9,19.0 C 364.5,20.4 365.0,21.2 365.5,23.1 C 366.1,25.0 366.6,28.4 367.1,30.4 C 367.7,32.5 368.2,33.6 368.7,35.2 C 369.3,36.8 369.8,38.4 370.3,39.9 C 370.9,41.3 371.4,43.3 371.9,44.2 C 372.5,45.0 373.0,44.9 373.5,44.8 C 374.1,44.7 374.6,44.9 375.2,43.5 C 375.7,42.2 376.2,39.4 376.8,36.7 C 377.3,34.1 377.8,30.6 378.4,27.7 C 378.9,24.9 379.4,21.9 380.0,19.8 C 380.5,17.8 381.0,16.2 381.6,15.5 C 382.1,14.9 382.6,15.2 383.2,15.9 C 383.7,16.5 384.2,17.6 384.8,19.3 C 385.3,21.0 385.8,24.0 386.4,26.1 C 386.9,28.2 387.4,29.7 388.0,32.0 C 388.5,34.3 389.0,38.0 389.6,40.2 C 390.1,42.3 390.6,44.2 391.2,45.1 C 391.7,46.0 392.3,46.2 392.8,45.5 C 393.3,44.9 393.9,43.2 394.4,41.1 C 394.9,39.0 395.5,35.9 396.0,33.0 C 396.5,30.1 397.1,26.7 397.6,23.7 C 398.1,20.8 398.7,17.6 399.2,15.3 C 399.7,12.9 400.3,11.3 400.8,9.8 C 401.3,8.2 401.9,6.1 402.4,6.0 C 402.9,5.9 403.5,7.3 404.0,9.0 C 404.5,10.7 405.1,12.6 405.6,16.2 C 406.1,19.9 406.7,26.5 407.2,30.9 C 407.7,35.3 408.3,39.3 408.8,42.5 C 409.4,45.7 409.9,48.9 410.4,50.2 C 411.0,51.6 411.5,51.1 412.0,50.8 C 412.6,50.4 413.1,49.3 413.6,47.9 C 414.2,46.6 414.7,44.8 415.2,42.9 C 415.8,41.0 416.3,38.8 416.8,36.5 C 417.4,34.2 417.9,31.4 418.4,29.0 C 419.0,26.6 419.5,24.2 420.0,22.1 C 420.6,19.9 421.1,17.3 421.6,16.1 C 422.2,15.0 422.7,15.1 423.2,15.2 C 423.8,15.3 424.3,15.5 424.8,16.6 C 425.4,17.7 425.9,19.8 426.5,21.9 C 427.0,24.0 427.5,26.7 428.1,29.2 C 428.6,31.8 429.1,35.1 429.7,37.2 C 430.2,39.3 430.7,40.9 431.3,41.8 C 431.8,42.7 432.3,43.1 432.9,42.6 C 433.4,42.1 433.9,40.4 434.5,38.5 C 435.0,36.6 435.5,33.9 436.1,31.2 C 436.6,28.5 437.1,24.4 437.7,22.3 C 438.2,20.2 438.7,19.2 439.3,18.5 C 439.8,17.9 440.3,18.3 440.9,18.6 C 441.4,18.8 442.0,19.4 442.5,20.0 C 443.0,20.6 443.6,21.4 444.1,22.3 C 444.6,23.1 445.2,24.0 445.7,25.0 C 446.2,26.0 446.8,26.4 447.3,28.2 C 447.8,30.0 448.4,33.4 448.9,35.6 C 449.4,37.8 450.0,39.8 450.5,41.3 C 451.0,42.9 451.6,44.4 452.1,44.9 C 452.6,45.4 453.2,45.4 453.7,44.2 C 454.2,43.1 454.8,39.8 455.3,38.1 C 455.8,36.4 456.4,35.7 456.9,34.0 C 457.4,32.3 458.0,29.6 458.5,27.9 C 459.1,26.1 459.6,24.4 460.1,23.5 C 460.7,22.6 461.2,22.3 461.7,22.3 C 462.3,22.2 462.8,22.5 463.3,23.1 C 463.9,23.8 464.4,25.1 464.9,26.1 C 465.5,27.2 466.0,28.8 466.5,29.4 C 467.1,30.0 467.6,29.6 468.1,29.5 C 468.7,29.4 469.2,29.1 469.7,28.7 C 470.3,28.3 470.8,27.1 471.3,27.2 C 471.9,27.3 472.4,28.6 472.9,29.3 C 473.5,30.0 474.0,30.8 474.5,31.2 C 475.1,31.6 475.6,31.8 476.2,31.7 C 476.7,31.5 477.2,31.0 477.8,30.3 C 478.3,29.6 478.8,28.3 479.4,27.5 C 479.9,26.8 480.4,25.5 481.0,25.5 C 481.5,25.6 482.0,27.1 482.6,28.0 C 483.1,28.9 483.6,30.3 484.2,31.1 C 484.7,31.9 485.2,32.4 485.8,33.0 C 486.3,33.7 486.8,34.5 487.4,35.0 C 487.9,35.5 488.4,36.0 489.0,36.1 C 489.5,36.1 490.0,35.8 490.6,35.4 C 491.1,34.9 491.6,34.2 492.2,33.5 C 492.7,32.8 493.3,32.0 493.8,31.1 C 494.3,30.3 494.9,28.9 495.4,28.5 C 495.9,28.1 496.5,28.7 497.0,28.8 C 497.5,28.8 498.1,28.7 498.6,28.8 C 499.1,28.9 499.7,29.5 500.2,29.2 C 500.7,28.9 501.3,27.8 501.8,27.1 C 502.3,26.3 502.9,25.2 503.4,24.8 C 503.9,24.4 504.5,24.4 505.0,24.8 C 505.5,25.1 506.1,26.2 506.6,27.0 C 507.1,27.7 507.7,28.6 508.2,29.3 C 508.8,29.9 509.3,31.0 509.8,31.0 C 510.4,30.9 510.9,29.4 511.4,29.0 C 512.0,28.6 512.5,28.6 513.0,28.5 C 513.6,28.3 514.1,28.0 514.6,28.1 C 515.2,28.1 515.7,28.0 516.2,28.8 C 516.8,29.6 517.3,32.1 517.8,32.8 C 518.4,33.6 518.9,32.8 519.4,33.3 C 520.0,33.8 520.5,35.2 521.0,35.7 C 521.6,36.2 522.1,36.4 522.6,36.4 C 523.2,36.4 523.7,35.9 524.2,35.7 C 524.8,35.6 525.3,35.7 525.9,35.4 C 526.4,35.1 526.9,34.6 527.5,34.0 C 528.0,33.4 528.5,32.0 529.1,31.6 C 529.6,31.2 530.1,31.6 530.7,31.6 C 531.2,31.7 531.7,32.3 532.3,32.0 C 532.8,31.7 533.3,30.3 533.9,29.8 C 534.4,29.2 534.9,29.2 535.5,28.6 C 536.0,28.1 536.5,27.1 537.1,26.7 C 537.6,26.3 538.1,25.9 538.7,26.2 C 539.2,26.5 539.7,27.6 540.3,28.5 C 540.8,29.5 541.3,31.3 541.9,31.8 C 542.4,32.4 543.0,32.1 543.5,31.8 C 544.0,31.5 544.6,30.8 545.1,29.9 C 545.6,29.0 546.2,27.0 546.7,26.4 C 547.2,25.7 547.8,25.9 548.3,26.0 C 548.8,26.1 549.4,26.1 549.9,27.0 C 550.4,27.9 551.0,30.8 551.5,31.6 C 552.0,32.5 552.6,32.0 553.1,32.2 C 553.6,32.4 554.2,33.0 554.7,33.0 C 555.2,33.0 555.8,32.6 556.3,32.4 C 556.8,32.2 557.4,32.0 557.9,31.8 C 558.5,31.5 559.0,31.1 559.5,30.9 C 560.1,30.6 560.6,30.2 561.1,30.2 C 561.7,30.1 562.2,30.2 562.7,30.7 C 563.3,31.1 563.8,31.9 564.3,32.7 C 564.9,33.5 565.4,35.0 565.9,35.5 C 566.5,35.9 567.0,36.0 567.5,35.2 C 568.1,34.5 568.6,32.4 569.1,31.1 C 569.7,29.8 570.2,28.2 570.7,27.3 C 571.3,26.4 571.8,25.5 572.3,25.5 C 572.9,25.5 573.4,27.1 573.9,27.4 C 574.5,27.6 575.0,27.3 575.6,27.2 C 576.1,27.0 576.6,27.0 577.2,26.4 C 577.7,25.8 578.2,24.5 578.8,23.7 C 579.3,22.9 579.8,21.7 580.4,21.6 C 580.9,21.5 581.4,22.1 582.0,22.9 C 582.5,23.7 583.0,25.3 583.6,26.5 C 584.1,27.7 584.6,28.9 585.2,30.3 C 585.7,31.7 586.2,33.8 586.8,34.7 C 587.3,35.5 587.8,35.2 588.4,35.3 C 588.9,35.4 589.4,35.6 590.0,35.5 C 590.5,35.4 591.0,35.3 591.6,34.7 C 592.1,34.0 592.7,32.4 593.2,31.5 C 593.7,30.6 594.3,30.1 594.8,29.4 C 595.3,28.6 595.9,27.4 596.4,27.0 C 596.9,26.5 597.5,26.4 598.0,26.7 C 598.5,27.1 599.1,28.8 599.6,29.1 C 600.1,29.5 600.7,29.0 601.2,28.9 C 601.7,28.9 602.3,28.8 602.8,28.7 C 603.3,28.6 603.9,27.6 604.4,28.1 C 604.9,28.6 605.5,30.1 606.0,31.6 C 606.5,33.1 607.1,35.7 607.6,37.1 C 608.1,38.5 608.7,39.8 609.2,40.0 C 609.8,40.2 610.3,39.4 610.8,38.5 C 611.4,37.5 611.9,36.0 612.4,34.3 C 613.0,32.6 613.5,30.1 614.0,28.3 C 614.6,26.5 615.1,24.7 615.6,23.6 C 616.2,22.5 616.7,22.5 617.2,21.9 C 617.8,21.2 618.3,20.0 618.8,19.8 C 619.4,19.6 619.9,20.0 620.4,20.5 C 621.0,21.0 621.5,21.9 622.0,22.9 C 622.6,24.0 623.1,25.1 623.6,26.8 C 624.2,28.5 624.7,31.4 625.3,33.2 C 625.8,35.0 626.3,36.0 626.9,37.7 C 627.4,39.3 627.9,42.0 628.5,43.0 C 629.0,44.1 629.5,44.2 630.1,44.0 C 630.6,43.9 631.1,42.7 631.7,42.1 C 632.2,41.4 632.7,42.0 633.3,40.3 C 633.8,38.7 634.3,34.9 634.9,32.2 C 635.4,29.6 635.9,26.6 636.5,24.3 C 637.0,22.0 637.5,19.8 638.1,18.4 C 638.6,16.9 639.1,15.3 639.7,15.4 C 640.2,15.6 640.7,17.8 641.3,19.4 C 641.8,21.0 642.4,23.3 642.9,25.0 C 643.4,26.7 644.0,28.4 644.5,29.5 C 645.0,30.6 645.6,30.7 646.1,31.6 C 646.6,32.6 647.2,34.1 647.7,35.0 C 648.2,35.8 648.8,36.1 649.3,36.5 C 649.8,37.0 650.4,37.9 650.9,37.6 C 651.4,37.4 652.0,36.0 652.5,34.8 C 653.0,33.7 653.6,32.3 654.1,30.7 C 654.6,29.0 655.2,26.7 655.7,25.0 C 656.2,23.4 656.8,22.1 657.3,20.8 C 657.8,19.4 658.4,17.5 658.9,17.1 C 659.5,16.7 660.0,17.9 660.5,18.4 C 661.1,18.9 661.6,19.2 662.1,20.3 C 662.7,21.5 663.2,23.2 663.7,25.4 C 664.3,27.6 664.8,30.8 665.3,33.3 C 665.9,35.7 666.4,38.5 666.9,40.1 C 667.5,41.7 668.0,42.3 668.5,42.7 C 669.1,43.0 669.6,42.9 670.1,42.2 C 670.7,41.5 671.2,39.5 671.7,38.4 C 672.3,37.3 672.8,36.5 673.3,35.6 C 673.9,34.6 674.4,33.9 674.9,32.7 C 675.5,31.5 676.0,29.5 676.6,28.4 C 677.1,27.4 677.6,27.2 678.2,26.2 C 678.7,25.2 679.2,23.4 679.8,22.5 C 680.3,21.5 680.8,20.4 681.4,20.6 C 681.9,20.9 682.4,22.9 683.0,24.2 C 683.5,25.5 684.0,27.2 684.6,28.4 C 685.1,29.5 685.6,30.7 686.2,31.2 C 686.7,31.7 687.2,31.3 687.8,31.2 C 688.3,31.2 688.8,30.9 689.4,30.8 C 689.9,30.8 690.4,31.0 691.0,31.0 C 691.5,31.0 692.1,31.1 692.6,30.8 C 693.1,30.6 693.7,29.8 694.2,29.4 C 694.7,28.9 695.3,28.6 695.8,28.2 C 696.3,27.8 696.9,27.1 697.4,27.0 C 697.9,27.0 698.5,27.1 699.0,27.7 C 699.5,28.3 700.1,30.5 700.6,30.7 C 701.1,31.0 701.7,29.7 702.2,29.2 C 702.7,28.8 703.3,27.8 703.8,28.0 C 704.3,28.1 704.9,29.6 705.4,30.2 C 705.9,30.8 706.5,30.9 707.0,31.6 C 707.5,32.3 708.1,33.3 708.6,34.2 C 709.2,35.0 709.7,36.7 710.2,36.8 C 710.8,36.9 711.3,35.3 711.8,34.6 C 712.4,34.0 712.9,33.8 713.4,32.9 C 714.0,31.9 714.5,29.9 715.0,29.1 C 715.6,28.4 716.1,28.3 716.6,28.1 C 717.2,27.9 717.7,27.7 718.2,28.1 C 718.8,28.4 719.3,30.0 719.8,30.1 C 720.4,30.3 720.9,29.3 721.4,29.0 C 722.0,28.6 722.5,27.9 723.0,27.8 C 723.6,27.7 724.1,28.4 724.6,28.3 C 725.2,28.2 725.7,27.4 726.3,27.3 C 726.8,27.2 727.3,27.6 727.9,27.6 C 728.4,27.6 728.9,27.4 729.5,27.4 C 730.0,27.3 730.5,27.0 731.1,27.4 C 731.6,27.9 732.1,29.3 732.7,30.1 C 733.2,30.8 733.7,32.1 734.3,32.1 C 734.8,32.2 735.3,31.0 735.9,30.4 C 736.4,29.8 736.9,28.9 737.5,28.7 C 738.0,28.5 738.5,28.6 739.1,29.1 C 739.6,29.6 740.1,30.8 740.7,31.8 C 741.2,32.8 741.8,34.3 742.3,35.1 C 742.8,35.9 743.4,36.7 743.9,36.4 C 744.4,36.2 745.0,34.2 745.5,33.4 C 746.0,32.6 746.6,32.4 747.1,31.9 C 747.6,31.3 748.2,30.4 748.7,30.1 C 749.2,29.8 749.8,29.5 750.3,29.9 C 750.8,30.3 751.4,32.3 751.9,32.6 C 752.4,32.9 753.0,32.0 753.5,31.9 C 754.0,31.7 754.6,32.0 755.1,31.6 C 755.6,31.2 756.2,30.1 756.7,29.5 C 757.2,28.9 757.8,28.3 758.3,28.1 C 758.9,27.9 759.4,28.3 759.9,28.2 C 760.5,28.1 761.0,27.9 761.5,27.6 C 762.1,27.4 762.6,27.0 763.1,26.9 C 763.7,26.8 764.2,26.6 764.7,27.1 C 765.3,27.6 765.8,29.7 766.3,30.0 C 766.9,30.2 767.4,28.7 767.9,28.7 C 768.5,28.8 769.0,30.5 769.5,30.5 C 770.1,30.4 770.6,28.7 771.1,28.5 C 771.7,28.3 772.2,28.8 772.7,29.4 C 773.3,30.1 773.8,31.6 774.3,32.4 C 774.9,33.1 775.4,33.6 776.0,33.8 C 776.5,34.1 777.0,34.4 777.6,33.8 C 778.1,33.1 778.6,31.0 779.2,30.0 C 779.7,29.0 780.2,28.2 780.8,27.9 C 781.3,27.7 781.8,28.4 782.4,28.7 C 782.9,29.1 783.4,29.7 784.0,30.2 C 784.5,30.6 785.0,31.2 785.6,31.4 C 786.1,31.5 786.6,31.3 787.2,31.0 C 787.7,30.8 788.2,30.3 788.8,30.1 C 789.3,29.9 789.8,29.9 790.4,29.9 C 790.9,29.8 791.4,30.0 792.0,29.6 C 792.5,29.3 793.1,28.4 793.6,27.9 C 794.1,27.5 794.7,27.2 795.2,26.9 C 795.7,26.7 796.3,26.2 796.8,26.5 C 797.3,26.8 797.9,28.2 798.4,28.8 C 798.9,29.4 799.7,29.9 800.0,30.1"
    fill="none" stroke="#4A9EBF" stroke-width="1.8" stroke-linecap="round" stroke-linejoin="round" opacity="0.45"/>
</svg>