<svg xmlns="http://www.w3.org/2000/svg" viewBox="0 0 512 512" width="512" height="512">
  <defs>
    <radialGradient id="nodeGlow" cx="50%" cy="50%" r="50%">
      <stop offset="0%" stop-color="#85C1E9"/>
      <stop offset="100%" stop-color="#5DADE2"/>
    </radialGradient>
    <radialGradient id="bg" cx="40%" cy="40%" r="60%">
      <stop offset="0%" stop-color="#1B4F72"/>
      <stop offset="100%" stop-color="#0B2A45"/>
    </radialGradient>
  </defs>

  <!-- Background circle -->
  <circle cx="256" cy="256" r="250" fill="url(#bg)"/>

  <!-- All connections (edges) -->
  <g stroke="#3498DB" stroke-opacity="0.5" stroke-width="2.5" fill="none">
    <!-- Outer brain contour -->
    <line x1="155" y1="175" x2="185" y2="140"/>
    <line x1="185" y1="140" x2="220" y2="118"/>
    <line x1="220" y1="118" x2="260" y2="108"/>
    <line x1="260" y1="108" x2="300" y2="112"/>
    <line x1="300" y1="112" x2="335" y2="128"/>
    <line x1="335" y1="128" x2="360" y2="152"/>
    <line x1="360" y1="152" x2="378" y2="182"/>
    <line x1="378" y1="182" x2="388" y2="218"/>
    <line x1="388" y1="218" x2="390" y2="255"/>
    <line x1="390" y1="255" x2="382" y2="290"/>
    <line x1="382" y1="290" x2="370" y2="315"/>
    <line x1="370" y1="315" x2="355" y2="338"/>
    <line x1="355" y1="338" x2="330" y2="355"/>
    <line x1="330" y1="355" x2="300" y2="365"/>
    <line x1="300" y1="365" x2="270" y2="368"/>
    <line x1="270" y1="368" x2="255" y2="385"/>
    <line x1="255" y1="385" x2="248" y2="405"/>
    <line x1="248" y1="405" x2="225" y2="395"/>
    <line x1="225" y1="395" x2="195" y2="378"/>
    <line x1="195" y1="378" x2="168" y2="355"/>
    <line x1="168" y1="355" x2="148" y2="330"/>
    <line x1="148" y1="330" x2="130" y2="300"/>
    <line x1="130" y1="300" x2="120" y2="268"/>
    <line x1="120" y1="268" x2="118" y2="238"/>
    <line x1="118" y1="238" x2="125" y2="208"/>
    <line x1="125" y1="208" x2="140" y2="188"/>
    <line x1="140" y1="188" x2="155" y2="175"/>

    <!-- Sylvian fissure -->
    <line x1="185" y1="260" x2="220" y2="252"/>
    <line x1="220" y1="252" x2="258" y2="248"/>
    <line x1="258" y1="248" x2="295" y2="255"/>
    <line x1="295" y1="255" x2="330" y2="270"/>

    <!-- Central sulcus -->
    <line x1="290" y1="135" x2="280" y2="170"/>
    <line x1="280" y1="170" x2="272" y2="210"/>
    <line x1="272" y1="210" x2="268" y2="248"/>

    <!-- Frontal internal mesh -->
    <line x1="155" y1="175" x2="175" y2="210"/>
    <line x1="175" y1="210" x2="185" y2="260"/>
    <line x1="185" y1="140" x2="200" y2="180"/>
    <line x1="200" y1="180" x2="220" y2="252"/>
    <line x1="220" y1="118" x2="225" y2="165"/>
    <line x1="225" y1="165" x2="258" y2="248"/>
    <line x1="155" y1="175" x2="200" y2="180"/>
    <line x1="200" y1="180" x2="225" y2="165"/>
    <line x1="175" y1="210" x2="200" y2="180"/>
    <line x1="175" y1="210" x2="220" y2="252"/>
    <line x1="140" y1="188" x2="175" y2="210"/>
    <line x1="125" y1="208" x2="175" y2="210"/>
    <line x1="118" y1="238" x2="185" y2="260"/>

    <!-- Parietal internal mesh -->
    <line x1="260" y1="108" x2="280" y2="170"/>
    <line x1="300" y1="112" x2="290" y2="135"/>
    <line x1="290" y1="135" x2="310" y2="175"/>
    <line x1="335" y1="128" x2="310" y2="175"/>
    <line x1="310" y1="175" x2="340" y2="215"/>
    <line x1="360" y1="152" x2="340" y2="215"/>
    <line x1="378" y1="182" x2="340" y2="215"/>
    <line x1="280" y1="170" x2="310" y2="175"/>
    <line x1="310" y1="175" x2="295" y2="255"/>
    <line x1="340" y1="215" x2="330" y2="270"/>
    <line x1="340" y1="215" x2="295" y2="255"/>
    <line x1="272" y1="210" x2="310" y2="175"/>

    <!-- Occipital mesh -->
    <line x1="388" y1="218" x2="355" y2="260"/>
    <line x1="390" y1="255" x2="355" y2="260"/>
    <line x1="382" y1="290" x2="355" y2="260"/>
    <line x1="340" y1="215" x2="355" y2="260"/>
    <line x1="330" y1="270" x2="355" y2="260"/>
    <line x1="330" y1="270" x2="370" y2="315"/>
    <line x1="355" y1="260" x2="370" y2="315"/>

    <!-- Cerebellum mesh -->
    <line x1="330" y1="355" x2="340" y2="330"/>
    <line x1="340" y1="330" x2="355" y2="338"/>
    <line x1="340" y1="330" x2="370" y2="315"/>
    <line x1="300" y1="365" x2="340" y2="330"/>
    <line x1="300" y1="365" x2="310" y2="340"/>
    <line x1="310" y1="340" x2="340" y2="330"/>
    <line x1="310" y1="340" x2="330" y2="355"/>
    <line x1="270" y1="368" x2="310" y2="340"/>

    <!-- Temporal mesh -->
    <line x1="185" y1="260" x2="168" y2="290"/>
    <line x1="168" y1="290" x2="130" y2="300"/>
    <line x1="168" y1="290" x2="148" y2="330"/>
    <line x1="185" y1="260" x2="210" y2="305"/>
    <line x1="210" y1="305" x2="168" y2="355"/>
    <line x1="210" y1="305" x2="195" y2="378"/>
    <line x1="220" y1="252" x2="210" y2="305"/>
    <line x1="258" y1="248" x2="245" y2="310"/>
    <line x1="245" y1="310" x2="210" y2="305"/>
    <line x1="245" y1="310" x2="270" y2="368"/>
    <line x1="245" y1="310" x2="225" y2="395"/>
    <line x1="295" y1="255" x2="245" y2="310"/>
    <line x1="120" y1="268" x2="168" y2="290"/>
    <line x1="168" y1="290" x2="210" y2="305"/>
    <line x1="148" y1="330" x2="168" y2="355"/>

    <!-- Cross-region connections -->
    <line x1="200" y1="180" x2="280" y2="170"/>
    <line x1="225" y1="165" x2="290" y2="135"/>
    <line x1="258" y1="248" x2="340" y2="215"/>
    <line x1="220" y1="252" x2="295" y2="255"/>
    <line x1="245" y1="310" x2="310" y2="340"/>

    <!-- Brainstem connections -->
    <line x1="255" y1="385" x2="270" y2="368"/>
    <line x1="248" y1="405" x2="270" y2="368"/>
    <line x1="245" y1="310" x2="255" y2="385"/>
  </g>

  <!-- Highlighted key connections (brighter long-range fibers) -->
  <g stroke="#5DADE2" stroke-opacity="0.7" stroke-width="3" fill="none">
    <line x1="200" y1="180" x2="310" y2="175"/>
    <line x1="225" y1="165" x2="340" y2="215"/>
    <line x1="175" y1="210" x2="295" y2="255"/>
    <line x1="210" y1="305" x2="340" y2="330"/>
    <line x1="258" y1="248" x2="355" y2="260"/>
  </g>

  <!-- Nodes -->
  <g fill="url(#nodeGlow)">
    <!-- Outer contour nodes -->
    <circle cx="155" cy="175" r="7"/>
    <circle cx="185" cy="140" r="6.5"/>
    <circle cx="220" cy="118" r="6.5"/>
    <circle cx="260" cy="108" r="7"/>
    <circle cx="300" cy="112" r="6.5"/>
    <circle cx="335" cy="128" r="7"/>
    <circle cx="360" cy="152" r="6.5"/>
    <circle cx="378" cy="182" r="6"/>
    <circle cx="388" cy="218" r="6"/>
    <circle cx="390" cy="255" r="6.5"/>
    <circle cx="382" cy="290" r="6"/>
    <circle cx="370" cy="315" r="6.5"/>
    <circle cx="355" cy="338" r="6"/>
    <circle cx="330" cy="355" r="6"/>
    <circle cx="300" cy="365" r="6"/>
    <circle cx="270" cy="368" r="6.5"/>
    <circle cx="255" cy="385" r="5.5"/>
    <circle cx="248" cy="405" r="5.5"/>
    <circle cx="225" cy="395" r="5.5"/>
    <circle cx="195" cy="378" r="6"/>
    <circle cx="168" cy="355" r="6"/>
    <circle cx="148" cy="330" r="6"/>
    <circle cx="130" cy="300" r="6"/>
    <circle cx="120" cy="268" r="6"/>
    <circle cx="118" cy="238" r="6"/>
    <circle cx="125" cy="208" r="6"/>
    <circle cx="140" cy="188" r="6"/>

    <!-- Internal nodes -->
    <circle cx="290" cy="135" r="6"/>
    <circle cx="280" cy="170" r="7"/>
    <circle cx="272" cy="210" r="6.5"/>
    <circle cx="200" cy="180" r="7.5"/>
    <circle cx="225" cy="165" r="7"/>
    <circle cx="175" cy="210" r="7"/>
    <circle cx="185" cy="260" r="7"/>
    <circle cx="220" cy="252" r="7"/>
    <circle cx="258" cy="248" r="8"/>
    <circle cx="295" cy="255" r="7"/>
    <circle cx="330" cy="270" r="6.5"/>
    <circle cx="310" cy="175" r="7"/>
    <circle cx="340" cy="215" r="7.5"/>
    <circle cx="355" cy="260" r="7"/>
    <circle cx="168" cy="290" r="6.5"/>
    <circle cx="210" cy="305" r="7"/>
    <circle cx="245" cy="310" r="7"/>
    <circle cx="340" cy="330" r="6.5"/>
    <circle cx="310" cy="340" r="6"/>
  </g>

  <!-- Bright accent on hub nodes -->
  <g fill="#AED6F1">
    <circle cx="258" cy="248" r="4.5" opacity="0.85"/>
    <circle cx="200" cy="180" r="4" opacity="0.75"/>
    <circle cx="340" cy="215" r="4" opacity="0.75"/>
    <circle cx="280" cy="170" r="3.5" opacity="0.65"/>
    <circle cx="210" cy="305" r="3.5" opacity="0.65"/>
  </g>
</svg>
