<svg xmlns="http://www.w3.org/2000/svg" viewBox="0 0 80 80" width="80" height="80">
  <!-- Network/computational graph for Mechanistic Modelling -->
  <circle cx="40" cy="40" r="38" fill="#EAF4FB" stroke="#2C5F8A" stroke-width="1.5"/>
  <!-- Connection lines -->
  <line x1="25" y1="22" x2="40" y2="18" stroke="#4A9EBF" stroke-width="1.5" opacity="0.5"/>
  <line x1="25" y1="22" x2="20" y2="40" stroke="#4A9EBF" stroke-width="1.5" opacity="0.5"/>
  <line x1="25" y1="22" x2="40" y2="38" stroke="#4A9EBF" stroke-width="1.5" opacity="0.5"/>
  <line x1="55" y1="22" x2="40" y2="18" stroke="#4A9EBF" stroke-width="1.5" opacity="0.5"/>
  <line x1="55" y1="22" x2="60" y2="40" stroke="#4A9EBF" stroke-width="1.5" opacity="0.5"/>
  <line x1="55" y1="22" x2="40" y2="38" stroke="#4A9EBF" stroke-width="1.5" opacity="0.5"/>
  <line x1="20" y1="40" x2="40" y2="38" stroke="#4A9EBF" stroke-width="1.5" opacity="0.5"/>
  <line x1="60" y1="40" x2="40" y2="38" stroke="#4A9EBF" stroke-width="1.5" opacity="0.5"/>
  <line x1="20" y1="40" x2="30" y2="58" stroke="#4A9EBF" stroke-width="1.5" opacity="0.5"/>
  <line x1="60" y1="40" x2="50" y2="58" stroke="#4A9EBF" stroke-width="1.5" opacity="0.5"/>
  <line x1="40" y1="38" x2="30" y2="58" stroke="#4A9EBF" stroke-width="1.5" opacity="0.5"/>
  <line x1="40" y1="38" x2="50" y2="58" stroke="#4A9EBF" stroke-width="1.5" opacity="0.5"/>
  <line x1="30" y1="58" x2="50" y2="58" stroke="#4A9EBF" stroke-width="1.5" opacity="0.5"/>
  <!-- Nodes -->
  <circle cx="40" cy="18" r="4.5" fill="#2C5F8A"/>
  <circle cx="25" cy="22" r="4" fill="#2C5F8A"/>
  <circle cx="55" cy="22" r="4" fill="#2C5F8A"/>
  <circle cx="20" cy="40" r="4" fill="#2C5F8A"/>
  <circle cx="60" cy="40" r="4" fill="#2C5F8A"/>
  <circle cx="40" cy="38" r="5.5" fill="#4A9EBF"/>
  <circle cx="30" cy="58" r="4" fill="#2C5F8A"/>
  <circle cx="50" cy="58" r="4" fill="#2C5F8A"/>
</svg>
